<?xml version="1.0" encoding="UTF-8"?>
<!DOCTYPE svg PUBLIC "-//W3C//DTD SVG 1.1//EN" "http://www.w3.org/Graphics/SVG/1.1/DTD/svg11.dtd">
<svg xmlns="http://www.w3.org/2000/svg" version="1.1" width="487px" height="309px" style="shape-rendering:geometricPrecision; text-rendering:geometricPrecision; image-rendering:optimizeQuality; fill-rule:evenodd; clip-rule:evenodd" xmlns:xlink="http://www.w3.org/1999/xlink">
<g><path style="opacity:1" fill="#1268b8" d="M 223.5,-0.5 C 227.5,-0.5 231.5,-0.5 235.5,-0.5C 247.905,2.19351 259.572,6.86018 270.5,13.5C 269.817,15.1765 268.483,15.8432 266.5,15.5C 266.5,14.5 266.5,13.5 266.5,12.5C 262.765,12.7343 259.432,11.7343 256.5,9.5C 253.612,11.5634 250.612,13.3967 247.5,15C 245.359,15.8837 243.693,15.3837 242.5,13.5C 245.679,12.4108 248.345,10.5774 250.5,8C 248.167,7.66667 245.833,7.33333 243.5,7C 242.897,4.92857 241.564,3.76191 239.5,3.5C 235.468,3.61701 231.801,3.95034 228.5,4.5C 227.596,3.79105 227.263,2.79105 227.5,1.5C 225.517,1.84316 224.183,1.17649 223.5,-0.5 Z"/></g>
<g><path style="opacity:0.804" fill="#1c569b" d="M 209.5,-0.5 C 210.5,-0.5 211.5,-0.5 212.5,-0.5C 213.263,0.26791 214.263,0.76791 215.5,1C 214.167,1.66667 212.833,2.33333 211.5,3C 198.682,3.49731 187.015,7.16398 176.5,14C 175.748,14.6708 175.414,15.5041 175.5,16.5C 174.5,16.5 173.5,16.5 172.5,16.5C 172.67,17.8221 172.337,18.9887 171.5,20C 169.613,20.7796 167.946,20.6129 166.5,19.5C 179.231,9.3685 193.564,2.70183 209.5,-0.5 Z"/></g>
<g><path style="opacity:1" fill="#0066c6" d="M 239.5,3.5 C 240.598,4.39695 240.598,5.23029 239.5,6C 240.167,6.33333 240.833,6.66667 241.5,7C 240.802,7.97073 240.802,9.1374 241.5,10.5C 240.472,12.708 239.139,14.708 237.5,16.5C 238.167,17.1667 238.833,17.8333 239.5,18.5C 237.196,20.4311 235.362,22.7644 234,25.5C 228.332,27.0031 224.832,30.6698 223.5,36.5C 223.709,37.9945 224.376,39.1612 225.5,40C 223.329,45.1634 221.329,50.3301 219.5,55.5C 218.5,55.5 217.5,55.5 216.5,55.5C 216.477,57.9267 215.977,60.26 215,62.5C 211.977,66.5999 208.81,70.5999 205.5,74.5C 201.547,82.1553 198.047,90.1553 195,98.5C 193.989,99.3366 192.822,99.67 191.5,99.5C 191.723,102.114 190.556,103.781 188,104.5C 187.206,107.471 186.539,110.471 186,113.5C 184.114,114.93 182.447,116.597 181,118.5C 177.412,126.607 173.079,134.274 168,141.5C 167.808,143.577 167.308,145.577 166.5,147.5C 163.793,149.389 161.793,151.889 160.5,155C 155.517,155.103 151.184,156.77 147.5,160C 150.285,160.491 152.952,161.658 155.5,163.5C 152.167,163.5 150.5,165.167 150.5,168.5C 148.5,168.167 146.5,167.833 144.5,167.5C 144.292,165.08 144.626,162.747 145.5,160.5C 143.189,159.425 140.856,159.425 138.5,160.5C 139.681,158.933 141.347,158.099 143.5,158C 141.939,157.682 140.772,156.849 140,155.5C 139.667,155.833 139.333,156.167 139,156.5C 138.48,154.711 138.813,153.044 140,151.5C 142.185,150.33 144.351,149.164 146.5,148C 145.833,147.667 145.167,147.333 144.5,147C 145.191,145.933 145.691,144.766 146,143.5C 150.584,136.668 154.917,129.668 159,122.5C 159.909,116.902 162.575,112.236 167,108.5C 167.801,103.697 170.467,100.364 175,98.5C 175.483,97.552 175.649,96.552 175.5,95.5C 170.863,95.3923 170.53,94.3923 174.5,92.5C 176.818,88.5355 179.152,84.5355 181.5,80.5C 180.524,78.8767 181.024,77.5433 183,76.5C 183.801,71.697 186.467,68.3637 191,66.5C 193.295,61.5582 195.962,56.8915 199,52.5C 200.092,45.9566 202.092,39.6232 205,33.5C 206.11,31.9632 207.61,31.2965 209.5,31.5C 211.101,27.0426 213.767,23.2092 217.5,20C 216.167,18.3333 214.833,16.6667 213.5,15C 215.743,11.5827 218.743,10.7494 222.5,12.5C 225.199,10.678 225.032,9.34466 222,8.5C 221.667,8.83333 221.333,9.16667 221,9.5C 219.881,8.44786 219.381,7.2812 219.5,6C 220,5.5 220.5,5 221,4.5C 222.389,6.22732 224.056,7.56065 226,8.5C 227.059,8.36992 227.892,7.86992 228.5,7C 227.402,6.23029 227.402,5.39695 228.5,4.5C 231.801,3.95034 235.468,3.61701 239.5,3.5 Z"/></g>
<g><path style="opacity:1" fill="#056dcb" d="M 239.5,3.5 C 241.564,3.76191 242.897,4.92857 243.5,7C 245.833,7.33333 248.167,7.66667 250.5,8C 248.345,10.5774 245.679,12.4108 242.5,13.5C 243.693,15.3837 245.359,15.8837 247.5,15C 250.612,13.3967 253.612,11.5634 256.5,9.5C 259.432,11.7343 262.765,12.7343 266.5,12.5C 266.5,13.5 266.5,14.5 266.5,15.5C 268.483,15.8432 269.817,15.1765 270.5,13.5C 286.232,23.3375 296.899,37.0042 302.5,54.5C 300.659,50.8168 298.326,47.4835 295.5,44.5C 294.37,42.6854 293.704,40.6854 293.5,38.5C 292.167,38.5 290.833,38.5 289.5,38.5C 289.307,42.449 288.807,42.449 288,38.5C 287.184,37.1772 286.017,36.5106 284.5,36.5C 281.624,35.0971 279.957,32.7637 279.5,29.5C 280.833,29.5 282.167,29.5 283.5,29.5C 283.67,28.1779 283.337,27.0113 282.5,26C 278.974,25.0315 275.974,25.8648 273.5,28.5C 275.171,30.5098 275.838,32.8431 275.5,35.5C 274.448,35.6495 273.448,35.4828 272.5,35C 271.853,33.3905 271.02,31.8905 270,30.5C 269.586,30.9574 269.086,31.2907 268.5,31.5C 265.099,38.8703 261.766,46.2036 258.5,53.5C 257.575,54.6405 256.741,54.6405 256,53.5C 250.733,62.7612 246.399,72.4279 243,82.5C 240.69,84.1374 239.19,86.304 238.5,89C 237.552,89.4828 236.552,89.6495 235.5,89.5C 236.211,92.8638 235.044,95.1971 232,96.5C 229.11,101.024 227.277,106.024 226.5,111.5C 223.451,116.408 220.118,121.074 216.5,125.5C 215.846,127.115 215.346,128.782 215,130.5C 213.795,131.071 212.628,131.738 211.5,132.5C 212.025,133.192 212.692,133.692 213.5,134C 208.895,137.632 206.562,142.465 206.5,148.5C 204.802,147.319 203.135,147.319 201.5,148.5C 199.205,150.509 197.872,152.675 197.5,155C 195.774,156.53 193.774,157.53 191.5,158C 193.854,158.847 196.188,159.68 198.5,160.5C 196.815,161.844 195.148,161.677 193.5,160C 181.446,159.487 169.446,160.153 157.5,162C 156.956,162.717 156.289,163.217 155.5,163.5C 152.952,161.658 150.285,160.491 147.5,160C 151.184,156.77 155.517,155.103 160.5,155C 161.793,151.889 163.793,149.389 166.5,147.5C 167.308,145.577 167.808,143.577 168,141.5C 173.079,134.274 177.412,126.607 181,118.5C 182.447,116.597 184.114,114.93 186,113.5C 186.539,110.471 187.206,107.471 188,104.5C 190.556,103.781 191.723,102.114 191.5,99.5C 192.822,99.67 193.989,99.3366 195,98.5C 198.047,90.1553 201.547,82.1553 205.5,74.5C 208.81,70.5999 211.977,66.5999 215,62.5C 215.977,60.26 216.477,57.9267 216.5,55.5C 217.5,55.5 218.5,55.5 219.5,55.5C 221.329,50.3301 223.329,45.1634 225.5,40C 224.376,39.1612 223.709,37.9945 223.5,36.5C 224.832,30.6698 228.332,27.0031 234,25.5C 235.362,22.7644 237.196,20.4311 239.5,18.5C 238.833,17.8333 238.167,17.1667 237.5,16.5C 239.139,14.708 240.472,12.708 241.5,10.5C 240.802,9.1374 240.802,7.97073 241.5,7C 240.833,6.66667 240.167,6.33333 239.5,6C 240.598,5.23029 240.598,4.39695 239.5,3.5 Z"/></g>
<g><path style="opacity:1" fill="#0158bb" d="M 126.5,160.5 C 114.091,160.061 101.758,160.561 89.5,162C 89.0426,162.414 88.7093,162.914 88.5,163.5C 89.6881,169.331 91.0214,174.997 92.5,180.5C 92.6641,183.187 92.4974,185.854 92,188.5C 91.586,188.957 91.086,189.291 90.5,189.5C 75.0885,181.64 65.7551,169.307 62.5,152.5C 63.4584,152.953 64.2917,153.619 65,154.5C 67.104,159.463 69.104,164.463 71,169.5C 72.2682,169.384 73.6015,169.051 75,168.5C 74.8637,161.971 76.0303,161.971 78.5,168.5C 81.3687,169.078 84.0353,170.078 86.5,171.5C 88.4011,170.065 88.7345,168.398 87.5,166.5C 85.2338,165.686 82.9005,165.186 80.5,165C 80.0426,164.586 79.7093,164.086 79.5,163.5C 80.6343,160.93 81.4677,158.264 82,155.5C 82.3333,156.5 82.6667,157.5 83,158.5C 83.8959,154.786 83.3959,151.286 81.5,148C 81.6667,147.5 81.8333,147 82,146.5C 83,147.5 84,148.5 85,149.5C 88.0715,143.692 91.4049,138.025 95,132.5C 96.195,129.775 96.5283,127.109 96,124.5C 98.7721,121.306 101.772,118.306 105,115.5C 106.167,113.167 107.333,110.833 108.5,108.5C 108.167,107.833 107.833,107.167 107.5,106.5C 110.544,102.337 114.044,98.6708 118,95.5C 118.349,92.6695 117.183,90.6695 114.5,89.5C 114.539,88.2438 114.039,87.2438 113,86.5C 110.4,89.3673 109.234,89.2007 109.5,86C 115.825,85.5005 122.158,85.3338 128.5,85.5C 128.119,87.9418 128.786,88.6085 130.5,87.5C 133.175,90.3011 135.509,89.9678 137.5,86.5C 136.552,81.5649 136.219,76.5649 136.5,71.5C 137.79,70.9423 138.623,69.9423 139,68.5C 140,64.1667 141,59.8333 142,55.5C 145.033,49.0049 148.2,42.6716 151.5,36.5C 155.413,29.9176 160.413,24.2509 166.5,19.5C 167.946,20.6129 169.613,20.7796 171.5,20C 172.337,18.9887 172.67,17.8221 172.5,16.5C 173.5,16.5 174.5,16.5 175.5,16.5C 178.415,14.3105 181.581,13.6438 185,14.5C 186.329,13.5061 187.662,12.5061 189,11.5C 189.5,11.8333 190,12.1667 190.5,12.5C 189.833,13.1667 189.167,13.8333 188.5,14.5C 189.576,15.6559 190.576,15.4892 191.5,14C 193.167,13.3333 194.833,13.3333 196.5,14C 193.976,17.1221 193.309,20.6221 194.5,24.5C 192.262,26.2585 191.262,28.5918 191.5,31.5C 190.448,31.3505 189.448,31.5172 188.5,32C 180.535,41.0747 176.202,51.5747 175.5,63.5C 174.022,63.238 172.689,63.5713 171.5,64.5C 169.593,68.4103 166.927,71.7436 163.5,74.5C 161.849,76.4021 161.516,78.4021 162.5,80.5C 162.167,81.5 161.5,82.1667 160.5,82.5C 159.833,86.8333 159.167,91.1667 158.5,95.5C 156.997,94.9478 155.331,94.9478 153.5,95.5C 151.603,99.5852 149.436,103.585 147,107.5C 146.51,108.793 146.343,110.127 146.5,111.5C 145.5,111.5 144.5,111.5 143.5,111.5C 143.799,113.604 143.466,115.604 142.5,117.5C 140.347,119.042 138.347,120.708 136.5,122.5C 135.563,126.887 134.563,131.22 133.5,135.5C 132.5,135.5 131.5,135.5 130.5,135.5C 130.358,138.617 129.024,141.117 126.5,143C 127.448,143.483 128.448,143.649 129.5,143.5C 129.799,145.604 129.466,147.604 128.5,149.5C 127.289,148.726 127.289,147.893 128.5,147C 126.438,146.436 124.605,146.936 123,148.5C 120.55,147.159 119.05,147.992 118.5,151C 119.91,151.368 120.91,152.201 121.5,153.5C 120.294,155.149 118.961,156.649 117.5,158C 120.797,158.204 123.797,159.037 126.5,160.5 Z"/></g>
<g><path style="opacity:1" fill="#0060c1" d="M 212.5,-0.5 C 216.167,-0.5 219.833,-0.5 223.5,-0.5C 224.183,1.17649 225.517,1.84316 227.5,1.5C 227.263,2.79105 227.596,3.79105 228.5,4.5C 227.402,5.39695 227.402,6.23029 228.5,7C 227.892,7.86992 227.059,8.36992 226,8.5C 224.056,7.56065 222.389,6.22732 221,4.5C 220.5,5 220,5.5 219.5,6C 219.381,7.2812 219.881,8.44786 221,9.5C 221.333,9.16667 221.667,8.83333 222,8.5C 225.032,9.34466 225.199,10.678 222.5,12.5C 218.743,10.7494 215.743,11.5827 213.5,15C 214.833,16.6667 216.167,18.3333 217.5,20C 213.767,23.2092 211.101,27.0426 209.5,31.5C 207.61,31.2965 206.11,31.9632 205,33.5C 202.092,39.6232 200.092,45.9566 199,52.5C 195.962,56.8915 193.295,61.5582 191,66.5C 186.467,68.3637 183.801,71.697 183,76.5C 181.024,77.5433 180.524,78.8767 181.5,80.5C 179.152,84.5355 176.818,88.5355 174.5,92.5C 170.53,94.3923 170.863,95.3923 175.5,95.5C 175.649,96.552 175.483,97.552 175,98.5C 170.467,100.364 167.801,103.697 167,108.5C 162.575,112.236 159.909,116.902 159,122.5C 154.917,129.668 150.584,136.668 146,143.5C 145.691,144.766 145.191,145.933 144.5,147C 145.167,147.333 145.833,147.667 146.5,148C 144.351,149.164 142.185,150.33 140,151.5C 138.813,153.044 138.48,154.711 139,156.5C 139.333,156.167 139.667,155.833 140,155.5C 140.772,156.849 141.939,157.682 143.5,158C 141.347,158.099 139.681,158.933 138.5,160.5C 134.5,160.5 130.5,160.5 126.5,160.5C 123.797,159.037 120.797,158.204 117.5,158C 118.961,156.649 120.294,155.149 121.5,153.5C 120.91,152.201 119.91,151.368 118.5,151C 119.05,147.992 120.55,147.159 123,148.5C 124.605,146.936 126.438,146.436 128.5,147C 127.289,147.893 127.289,148.726 128.5,149.5C 129.466,147.604 129.799,145.604 129.5,143.5C 128.448,143.649 127.448,143.483 126.5,143C 129.024,141.117 130.358,138.617 130.5,135.5C 131.5,135.5 132.5,135.5 133.5,135.5C 134.563,131.22 135.563,126.887 136.5,122.5C 138.347,120.708 140.347,119.042 142.5,117.5C 143.466,115.604 143.799,113.604 143.5,111.5C 144.5,111.5 145.5,111.5 146.5,111.5C 146.343,110.127 146.51,108.793 147,107.5C 149.436,103.585 151.603,99.5852 153.5,95.5C 155.331,94.9478 156.997,94.9478 158.5,95.5C 159.167,91.1667 159.833,86.8333 160.5,82.5C 161.5,82.1667 162.167,81.5 162.5,80.5C 161.516,78.4021 161.849,76.4021 163.5,74.5C 166.927,71.7436 169.593,68.4103 171.5,64.5C 172.689,63.5713 174.022,63.238 175.5,63.5C 176.202,51.5747 180.535,41.0747 188.5,32C 189.448,31.5172 190.448,31.3505 191.5,31.5C 191.262,28.5918 192.262,26.2585 194.5,24.5C 193.309,20.6221 193.976,17.1221 196.5,14C 194.833,13.3333 193.167,13.3333 191.5,14C 190.576,15.4892 189.576,15.6559 188.5,14.5C 189.167,13.8333 189.833,13.1667 190.5,12.5C 190,12.1667 189.5,11.8333 189,11.5C 187.662,12.5061 186.329,13.5061 185,14.5C 181.581,13.6438 178.415,14.3105 175.5,16.5C 175.414,15.5041 175.748,14.6708 176.5,14C 187.015,7.16398 198.682,3.49731 211.5,3C 212.833,2.33333 214.167,1.66667 215.5,1C 214.263,0.76791 213.263,0.26791 212.5,-0.5 Z"/></g>
<g><path style="opacity:1" fill="#1a67c9" d="M 284.5,36.5 C 283.792,40.7847 283.292,45.118 283,49.5C 280.632,51.5943 278.798,54.0943 277.5,57C 278.167,57.3333 278.833,57.6667 279.5,58C 278.146,61.7878 275.646,65.2878 272,68.5C 271.517,69.448 271.351,70.448 271.5,71.5C 269.019,71.3234 267.186,72.3234 266,74.5C 265.316,75.7839 265.483,76.9505 266.5,78C 264.497,82.3698 262.497,86.7031 260.5,91C 259.552,91.4828 258.552,91.6495 257.5,91.5C 257.509,93.3084 257.009,94.9751 256,96.5C 254.535,95.6315 253.369,96.1315 252.5,98C 252.645,98.772 252.978,99.4387 253.5,100C 252.24,102.886 250.907,105.719 249.5,108.5C 250.025,109.192 250.692,109.692 251.5,110C 249.862,110.242 248.362,111.075 247,112.5C 246.098,116.122 244.598,119.455 242.5,122.5C 242.709,123.086 243.043,123.586 243.5,124C 239.355,126.735 238.355,130.068 240.5,134C 239.892,138.35 237.892,141.85 234.5,144.5C 233.568,146.795 232.735,149.129 232,151.5C 231.667,149.5 231.333,147.5 231,145.5C 228.54,146.755 227.373,148.755 227.5,151.5C 224.512,151.155 223.179,152.488 223.5,155.5C 225.801,159.57 225.801,163.57 223.5,167.5C 221.656,165.114 219.489,165.114 217,167.5C 214.028,166.974 211.528,165.641 209.5,163.5C 208.446,163.68 207.446,164.013 206.5,164.5C 205.494,164.062 205.494,163.396 206.5,162.5C 204.842,161.172 203.009,160.172 201,159.5C 199.93,159.528 199.097,159.861 198.5,160.5C 196.188,159.68 193.854,158.847 191.5,158C 193.774,157.53 195.774,156.53 197.5,155C 197.872,152.675 199.205,150.509 201.5,148.5C 203.135,147.319 204.802,147.319 206.5,148.5C 206.562,142.465 208.895,137.632 213.5,134C 212.692,133.692 212.025,133.192 211.5,132.5C 212.628,131.738 213.795,131.071 215,130.5C 215.346,128.782 215.846,127.115 216.5,125.5C 220.118,121.074 223.451,116.408 226.5,111.5C 227.277,106.024 229.11,101.024 232,96.5C 235.044,95.1971 236.211,92.8638 235.5,89.5C 236.552,89.6495 237.552,89.4828 238.5,89C 239.19,86.304 240.69,84.1374 243,82.5C 246.399,72.4279 250.733,62.7612 256,53.5C 256.741,54.6405 257.575,54.6405 258.5,53.5C 261.766,46.2036 265.099,38.8703 268.5,31.5C 269.086,31.2907 269.586,30.9574 270,30.5C 271.02,31.8905 271.853,33.3905 272.5,35C 273.448,35.4828 274.448,35.6495 275.5,35.5C 275.838,32.8431 275.171,30.5098 273.5,28.5C 275.974,25.8648 278.974,25.0315 282.5,26C 283.337,27.0113 283.67,28.1779 283.5,29.5C 282.167,29.5 280.833,29.5 279.5,29.5C 279.957,32.7637 281.624,35.0971 284.5,36.5 Z"/></g>
<g><path style="opacity:1" fill="#2c60c7" d="M 284.5,36.5 C 286.017,36.5106 287.184,37.1772 288,38.5C 288.807,42.449 289.307,42.449 289.5,38.5C 290.833,38.5 292.167,38.5 293.5,38.5C 293.704,40.6854 294.37,42.6854 295.5,44.5C 293.387,45.2563 291.387,45.4229 289.5,45C 289.957,45.414 290.291,45.914 290.5,46.5C 288.579,52.9712 287.413,59.6378 287,66.5C 282.539,71.8913 279.206,77.8913 277,84.5C 273.576,88.8241 269.909,92.8241 266,96.5C 264.929,107.587 260.263,116.92 252,124.5C 249.16,130.845 246.327,137.178 243.5,143.5C 242.5,143.5 241.5,143.5 240.5,143.5C 240.66,145.199 240.494,146.866 240,148.5C 237.5,152.167 235,155.833 232.5,159.5C 231.702,157.922 231.202,156.256 231,154.5C 229.795,155.071 228.628,155.738 227.5,156.5C 229.276,157.315 229.943,158.482 229.5,160C 231.768,160.308 233.768,160.808 235.5,161.5C 235.291,162.086 234.957,162.586 234.5,163C 232.236,163.236 230.069,163.736 228,164.5C 227.654,166.218 227.154,167.885 226.5,169.5C 228.546,171.782 229.546,174.449 229.5,177.5C 228.265,177.279 227.265,176.612 226.5,175.5C 224.877,176.491 223.877,175.824 223.5,173.5C 222.271,172.719 220.938,172.219 219.5,172C 220.167,171.667 220.833,171.333 221.5,171C 220.663,169.989 220.33,168.822 220.5,167.5C 221.5,167.5 222.5,167.5 223.5,167.5C 225.801,163.57 225.801,159.57 223.5,155.5C 223.179,152.488 224.512,151.155 227.5,151.5C 227.373,148.755 228.54,146.755 231,145.5C 231.333,147.5 231.667,149.5 232,151.5C 232.735,149.129 233.568,146.795 234.5,144.5C 237.892,141.85 239.892,138.35 240.5,134C 238.355,130.068 239.355,126.735 243.5,124C 243.043,123.586 242.709,123.086 242.5,122.5C 244.598,119.455 246.098,116.122 247,112.5C 248.362,111.075 249.862,110.242 251.5,110C 250.692,109.692 250.025,109.192 249.5,108.5C 250.907,105.719 252.24,102.886 253.5,100C 252.978,99.4387 252.645,98.772 252.5,98C 253.369,96.1315 254.535,95.6315 256,96.5C 257.009,94.9751 257.509,93.3084 257.5,91.5C 258.552,91.6495 259.552,91.4828 260.5,91C 262.497,86.7031 264.497,82.3698 266.5,78C 265.483,76.9505 265.316,75.7839 266,74.5C 267.186,72.3234 269.019,71.3234 271.5,71.5C 271.351,70.448 271.517,69.448 272,68.5C 275.646,65.2878 278.146,61.7878 279.5,58C 278.833,57.6667 278.167,57.3333 277.5,57C 278.798,54.0943 280.632,51.5943 283,49.5C 283.292,45.118 283.792,40.7847 284.5,36.5 Z"/></g>
<g><path style="opacity:0.239" fill="#1f5391" d="M 151.5,36.5 C 148.2,42.6716 145.033,49.0049 142,55.5C 141,59.8333 140,64.1667 139,68.5C 138.623,69.9423 137.79,70.9423 136.5,71.5C 138.625,58.5067 143.625,46.84 151.5,36.5 Z"/></g>
<g><path style="opacity:1" fill="#6a4abd" d="M 366.5,68.5 C 366.833,69.1667 367.167,69.8333 367.5,70.5C 367.5,70.8333 367.5,71.1667 367.5,71.5C 364.302,71.4802 361.469,71.1469 359,70.5C 356.108,73.271 353.442,76.271 351,79.5C 345.854,88.6309 341.354,97.6309 337.5,106.5C 333.83,109.165 331.164,112.665 329.5,117C 328.385,118.235 328.385,119.402 329.5,120.5C 328.372,121.262 327.205,121.929 326,122.5C 324.062,126.584 322.895,130.917 322.5,135.5C 318.006,136.159 316.339,138.825 317.5,143.5C 316.022,143.238 314.689,143.571 313.5,144.5C 311.862,150.078 309.862,155.412 307.5,160.5C 310.455,161.159 313.455,161.492 316.5,161.5C 321.56,164.296 326.227,167.629 330.5,171.5C 323.001,167.893 315.334,164.893 307.5,162.5C 307.389,161.883 307.056,161.383 306.5,161C 298.627,159.074 290.627,158.24 282.5,158.5C 283.878,157.766 285.378,157.099 287,156.5C 287.333,154.5 287.667,152.5 288,150.5C 292.634,147.923 295.3,143.923 296,138.5C 299.798,135.044 302.798,131.044 305,126.5C 306.366,121.687 308.033,117.021 310,112.5C 311,111.833 312,111.167 313,110.5C 315.333,105.833 317.667,101.167 320,96.5C 321.011,95.6634 322.178,95.33 323.5,95.5C 326.664,84.6699 331.331,74.5033 337.5,65C 336.027,64.2904 335.36,63.1238 335.5,61.5C 337.565,62.4451 339.399,63.1117 341,63.5C 341.49,62.2068 341.657,60.8734 341.5,59.5C 350.17,61.9753 358.504,64.9753 366.5,68.5 Z"/></g>
<g><path style="opacity:1" fill="#014db2" d="M 114.5,89.5 C 117.183,90.6695 118.349,92.6695 118,95.5C 114.044,98.6708 110.544,102.337 107.5,106.5C 107.833,107.167 108.167,107.833 108.5,108.5C 107.333,110.833 106.167,113.167 105,115.5C 101.772,118.306 98.7721,121.306 96,124.5C 96.5283,127.109 96.195,129.775 95,132.5C 91.4049,138.025 88.0715,143.692 85,149.5C 84,148.5 83,147.5 82,146.5C 81.8333,147 81.6667,147.5 81.5,148C 83.3959,151.286 83.8959,154.786 83,158.5C 82.6667,157.5 82.3333,156.5 82,155.5C 81.4677,158.264 80.6343,160.93 79.5,163.5C 79.7093,164.086 80.0426,164.586 80.5,165C 82.9005,165.186 85.2338,165.686 87.5,166.5C 88.7345,168.398 88.4011,170.065 86.5,171.5C 84.0353,170.078 81.3687,169.078 78.5,168.5C 76.0303,161.971 74.8637,161.971 75,168.5C 73.6015,169.051 72.2682,169.384 71,169.5C 69.104,164.463 67.104,159.463 65,154.5C 64.2917,153.619 63.4584,152.953 62.5,152.5C 62.334,147.156 62.5006,141.823 63,136.5C 64.1136,131.978 64.9469,127.311 65.5,122.5C 66.1667,120.833 66.8333,119.167 67.5,117.5C 68.9823,119.891 70.6489,122.224 72.5,124.5C 74.0117,120.907 73.1783,117.907 70,115.5C 69.3333,114.167 69.3333,112.833 70,111.5C 72.034,108.615 74.2007,105.782 76.5,103C 77.4491,102.383 78.2825,102.549 79,103.5C 79.4828,102.552 79.6495,101.552 79.5,100.5C 83.8124,101.785 87.1457,100.285 89.5,96C 91.7254,95.4389 93.7254,94.4389 95.5,93C 95.1667,92.6667 94.8333,92.3333 94.5,92C 98.3735,91.7619 102.04,90.9286 105.5,89.5C 107.481,89.4371 109.148,90.1038 110.5,91.5C 111.622,90.3698 112.956,89.7031 114.5,89.5 Z"/></g>
<g><path style="opacity:1" fill="#4956c3" d="M 321.5,56.5 C 324.518,56.3354 327.518,56.502 330.5,57C 329.833,57.3333 329.167,57.6667 328.5,58C 329.833,58.6667 329.833,59.3333 328.5,60C 323.167,60.6667 323.167,61.3333 328.5,62C 325.938,64.3366 324.105,67.1699 323,70.5C 317.899,72.5321 315.065,76.8655 314.5,83.5C 311.999,86.8366 310.166,90.5033 309,94.5C 307.989,95.3366 306.822,95.67 305.5,95.5C 304.964,98.5547 304.131,101.555 303,104.5C 295.993,113.532 290.327,123.199 286,133.5C 283.454,136.037 281.788,139.037 281,142.5C 277.651,143.741 276.818,145.908 278.5,149C 277.376,149.249 276.376,149.749 275.5,150.5C 276.052,152.003 276.052,153.669 275.5,155.5C 274.5,155.5 273.5,155.5 272.5,155.5C 272.649,154.448 272.483,153.448 272,152.5C 271.667,154.833 271.333,157.167 271,159.5C 268.366,158.308 267.532,158.974 268.5,161.5C 265.916,161.569 263.916,162.735 262.5,165C 261.207,165.49 259.873,165.657 258.5,165.5C 258.567,166.959 258.234,168.292 257.5,169.5C 254.495,169.253 251.995,170.253 250,172.5C 247.959,171.577 245.792,171.244 243.5,171.5C 242.498,168.89 242.665,166.224 244,163.5C 246.069,162.736 248.236,162.236 250.5,162C 250.957,161.586 251.291,161.086 251.5,160.5C 248.795,156.204 250.128,153.871 255.5,153.5C 255.34,151.801 255.506,150.134 256,148.5C 256.333,149.5 256.667,150.5 257,151.5C 258.986,150.834 261.152,149.668 263.5,148C 262.975,147.308 262.308,146.808 261.5,146.5C 260.549,147.326 259.549,147.492 258.5,147C 260.494,144.153 261.828,140.986 262.5,137.5C 263.025,136.808 263.692,136.308 264.5,136C 265.102,128.712 268.436,122.546 274.5,117.5C 276.142,110.918 278.975,104.918 283,99.5C 283.49,98.2068 283.657,96.8734 283.5,95.5C 284.5,95.5 285.5,95.5 286.5,95.5C 287.298,89.5742 289.965,84.5742 294.5,80.5C 295.433,75.3056 297.933,70.9723 302,67.5C 302.825,65.2992 302.325,63.4659 300.5,62C 305.572,58.6526 311.072,57.486 317,58.5C 318.876,58.4753 320.376,57.8086 321.5,56.5 Z"/></g>
<g><path style="opacity:1" fill="#124a9f" d="M 136.5,71.5 C 136.219,76.5649 136.552,81.5649 137.5,86.5C 135.509,89.9678 133.175,90.3011 130.5,87.5C 128.786,88.6085 128.119,87.9418 128.5,85.5C 122.158,85.3338 115.825,85.5005 109.5,86C 109.234,89.2007 110.4,89.3673 113,86.5C 114.039,87.2438 114.539,88.2438 114.5,89.5C 112.956,89.7031 111.622,90.3698 110.5,91.5C 109.148,90.1038 107.481,89.4371 105.5,89.5C 102.04,90.9286 98.3735,91.7619 94.5,92C 94.8333,92.3333 95.1667,92.6667 95.5,93C 93.7254,94.4389 91.7254,95.4389 89.5,96C 87.1457,100.285 83.8124,101.785 79.5,100.5C 79.6495,101.552 79.4828,102.552 79,103.5C 78.2825,102.549 77.4491,102.383 76.5,103C 74.2007,105.782 72.034,108.615 70,111.5C 69.3333,112.833 69.3333,114.167 70,115.5C 73.1783,117.907 74.0117,120.907 72.5,124.5C 70.6489,122.224 68.9823,119.891 67.5,117.5C 66.8333,119.167 66.1667,120.833 65.5,122.5C 64.9469,127.311 64.1136,131.978 63,136.5C 62.5006,141.823 62.334,147.156 62.5,152.5C 58.3417,133.444 62.5083,116.444 75,101.5C 91.6208,85.3048 111.121,79.9715 133.5,85.5C 135.833,85.1667 136.167,84.1667 134.5,82.5C 135.104,78.6973 135.77,75.0306 136.5,71.5 Z"/></g>
<g><path style="opacity:1" fill="#385cc5" d="M 295.5,44.5 C 298.326,47.4835 300.659,50.8168 302.5,54.5C 303.265,54.9234 304.098,55.2568 305,55.5C 317.162,52.9205 329.328,52.9205 341.5,55.5C 334.843,55.5294 328.176,55.8628 321.5,56.5C 320.376,57.8086 318.876,58.4753 317,58.5C 311.072,57.486 305.572,58.6526 300.5,62C 302.325,63.4659 302.825,65.2992 302,67.5C 297.933,70.9723 295.433,75.3056 294.5,80.5C 289.965,84.5742 287.298,89.5742 286.5,95.5C 285.5,95.5 284.5,95.5 283.5,95.5C 283.657,96.8734 283.49,98.2068 283,99.5C 278.975,104.918 276.142,110.918 274.5,117.5C 268.436,122.546 265.102,128.712 264.5,136C 263.692,136.308 263.025,136.808 262.5,137.5C 261.828,140.986 260.494,144.153 258.5,147C 259.549,147.492 260.549,147.326 261.5,146.5C 262.308,146.808 262.975,147.308 263.5,148C 261.152,149.668 258.986,150.834 257,151.5C 256.667,150.5 256.333,149.5 256,148.5C 255.506,150.134 255.34,151.801 255.5,153.5C 250.128,153.871 248.795,156.204 251.5,160.5C 251.291,161.086 250.957,161.586 250.5,162C 248.236,162.236 246.069,162.736 244,163.5C 242.665,166.224 242.498,168.89 243.5,171.5C 245.792,171.244 247.959,171.577 250,172.5C 251.995,170.253 254.495,169.253 257.5,169.5C 250.556,174.111 244.222,179.445 238.5,185.5C 238.44,184.957 238.107,184.624 237.5,184.5C 235.477,186.173 233.144,186.84 230.5,186.5C 229.841,183.545 229.508,180.545 229.5,177.5C 229.546,174.449 228.546,171.782 226.5,169.5C 227.154,167.885 227.654,166.218 228,164.5C 230.069,163.736 232.236,163.236 234.5,163C 234.957,162.586 235.291,162.086 235.5,161.5C 233.768,160.808 231.768,160.308 229.5,160C 229.943,158.482 229.276,157.315 227.5,156.5C 228.628,155.738 229.795,155.071 231,154.5C 231.202,156.256 231.702,157.922 232.5,159.5C 235,155.833 237.5,152.167 240,148.5C 240.494,146.866 240.66,145.199 240.5,143.5C 241.5,143.5 242.5,143.5 243.5,143.5C 246.327,137.178 249.16,130.845 252,124.5C 260.263,116.92 264.929,107.587 266,96.5C 269.909,92.8241 273.576,88.8241 277,84.5C 279.206,77.8913 282.539,71.8913 287,66.5C 287.413,59.6378 288.579,52.9712 290.5,46.5C 290.291,45.914 289.957,45.414 289.5,45C 291.387,45.4229 293.387,45.2563 295.5,44.5 Z"/></g>
<g><path style="opacity:1" fill="#8640ba" d="M 370.5,75.5 C 373.018,78.0546 373.351,80.5546 371.5,83C 371.667,83.5 371.833,84 372,84.5C 374,83.1667 376,83.1667 378,84.5C 378.326,87.3323 377.826,89.999 376.5,92.5C 377.5,92.5 378.5,92.5 379.5,92.5C 379.611,93.1174 379.944,93.6174 380.5,94C 377.97,98.0661 374.97,101.733 371.5,105C 370.082,108.001 369.249,111.168 369,114.5C 365.085,117.734 362.419,121.734 361,126.5C 355.181,132.333 351.515,139.333 350,147.5C 348,149.833 346,152.167 344,154.5C 343.276,160.885 339.943,165.218 334,167.5C 332.935,165.604 332.102,165.437 331.5,167C 333.212,168.923 334.546,171.089 335.5,173.5C 337.045,174.452 338.712,174.785 340.5,174.5C 340.5,175.5 340.5,176.5 340.5,177.5C 339.5,177.5 338.5,177.5 337.5,177.5C 334.94,175.727 332.607,173.727 330.5,171.5C 326.227,167.629 321.56,164.296 316.5,161.5C 316.389,160.883 316.056,160.383 315.5,160C 318.149,159.548 320.649,158.714 323,157.5C 323.507,156.004 323.007,154.837 321.5,154C 324.702,151.1 327.036,147.6 328.5,143.5C 330.452,141.259 332.618,139.259 335,137.5C 334.008,134.43 334.341,131.43 336,128.5C 337.011,127.663 338.178,127.33 339.5,127.5C 342.7,115.099 348.534,104.099 357,94.5C 359.803,89.8842 361.803,84.8842 363,79.5C 364.205,78.9288 365.372,78.2621 366.5,77.5C 366.291,76.914 365.957,76.414 365.5,76C 367.134,75.5065 368.801,75.3398 370.5,75.5 Z"/></g>
<g><path style="opacity:1" fill="#5751bf" d="M 321.5,56.5 C 328.176,55.8628 334.843,55.5294 341.5,55.5C 350.533,58.5164 358.867,62.8497 366.5,68.5C 358.504,64.9753 350.17,61.9753 341.5,59.5C 341.657,60.8734 341.49,62.2068 341,63.5C 339.399,63.1117 337.565,62.4451 335.5,61.5C 335.36,63.1238 336.027,64.2904 337.5,65C 331.331,74.5033 326.664,84.6699 323.5,95.5C 322.178,95.33 321.011,95.6634 320,96.5C 317.667,101.167 315.333,105.833 313,110.5C 312,111.167 311,111.833 310,112.5C 308.033,117.021 306.366,121.687 305,126.5C 302.798,131.044 299.798,135.044 296,138.5C 295.3,143.923 292.634,147.923 288,150.5C 287.667,152.5 287.333,154.5 287,156.5C 285.378,157.099 283.878,157.766 282.5,158.5C 281.666,159.748 280.333,160.415 278.5,160.5C 275.183,161.053 271.85,161.386 268.5,161.5C 267.532,158.974 268.366,158.308 271,159.5C 271.333,157.167 271.667,154.833 272,152.5C 272.483,153.448 272.649,154.448 272.5,155.5C 273.5,155.5 274.5,155.5 275.5,155.5C 276.052,153.669 276.052,152.003 275.5,150.5C 276.376,149.749 277.376,149.249 278.5,149C 276.818,145.908 277.651,143.741 281,142.5C 281.788,139.037 283.454,136.037 286,133.5C 290.327,123.199 295.993,113.532 303,104.5C 304.131,101.555 304.964,98.5547 305.5,95.5C 306.822,95.67 307.989,95.3366 309,94.5C 310.166,90.5033 311.999,86.8366 314.5,83.5C 315.065,76.8655 317.899,72.5321 323,70.5C 324.105,67.1699 325.938,64.3366 328.5,62C 323.167,61.3333 323.167,60.6667 328.5,60C 329.833,59.3333 329.833,58.6667 328.5,58C 329.167,57.6667 329.833,57.3333 330.5,57C 327.518,56.502 324.518,56.3354 321.5,56.5 Z"/></g>
<g><path style="opacity:1" fill="#7546bc" d="M 367.5,71.5 C 369.262,72.2623 370.262,73.5956 370.5,75.5C 368.801,75.3398 367.134,75.5065 365.5,76C 365.957,76.414 366.291,76.914 366.5,77.5C 365.372,78.2621 364.205,78.9288 363,79.5C 361.803,84.8842 359.803,89.8842 357,94.5C 348.534,104.099 342.7,115.099 339.5,127.5C 338.178,127.33 337.011,127.663 336,128.5C 334.341,131.43 334.008,134.43 335,137.5C 332.618,139.259 330.452,141.259 328.5,143.5C 327.036,147.6 324.702,151.1 321.5,154C 323.007,154.837 323.507,156.004 323,157.5C 320.649,158.714 318.149,159.548 315.5,160C 316.056,160.383 316.389,160.883 316.5,161.5C 313.455,161.492 310.455,161.159 307.5,160.5C 309.862,155.412 311.862,150.078 313.5,144.5C 314.689,143.571 316.022,143.238 317.5,143.5C 316.339,138.825 318.006,136.159 322.5,135.5C 322.895,130.917 324.062,126.584 326,122.5C 327.205,121.929 328.372,121.262 329.5,120.5C 328.385,119.402 328.385,118.235 329.5,117C 331.164,112.665 333.83,109.165 337.5,106.5C 341.354,97.6309 345.854,88.6309 351,79.5C 353.442,76.271 356.108,73.271 359,70.5C 361.469,71.1469 364.302,71.4802 367.5,71.5 Z"/></g>
<g><path style="opacity:1" fill="#963ab6" d="M 385.5,98.5 C 384.5,98.5 383.5,98.5 382.5,98.5C 382.682,101.622 381.682,104.289 379.5,106.5C 381.251,110.032 382.084,113.698 382,117.5C 380.356,121.644 377.522,124.644 373.5,126.5C 370.893,131.38 368.56,136.38 366.5,141.5C 363.845,146.115 360.679,150.449 357,154.5C 355.603,158.253 354.436,162.086 353.5,166C 353.095,166.945 352.428,167.612 351.5,168C 351.833,168.333 352.167,168.667 352.5,169C 349.275,170.539 346.275,172.539 343.5,175C 345.169,176.669 347.169,177.502 349.5,177.5C 349.532,179.619 348.532,180.952 346.5,181.5C 344.772,179.774 342.772,178.441 340.5,177.5C 340.5,176.5 340.5,175.5 340.5,174.5C 338.712,174.785 337.045,174.452 335.5,173.5C 334.546,171.089 333.212,168.923 331.5,167C 332.102,165.437 332.935,165.604 334,167.5C 339.943,165.218 343.276,160.885 344,154.5C 346,152.167 348,149.833 350,147.5C 351.515,139.333 355.181,132.333 361,126.5C 362.419,121.734 365.085,117.734 369,114.5C 369.249,111.168 370.082,108.001 371.5,105C 374.97,101.733 377.97,98.0661 380.5,94C 379.944,93.6174 379.611,93.1174 379.5,92.5C 380.75,92.4226 381.583,91.756 382,90.5C 382.921,93.3358 384.088,96.0024 385.5,98.5 Z"/></g>
<g><path style="opacity:1" fill="#9e3dab" d="M 367.5,71.5 C 367.5,71.1667 367.5,70.8333 367.5,70.5C 378.395,78.2595 385.895,88.5929 390,101.5C 399.16,137.294 388.66,165.461 358.5,186C 355.446,188.208 352.113,189.208 348.5,189C 345.154,184.762 341.488,180.929 337.5,177.5C 338.5,177.5 339.5,177.5 340.5,177.5C 342.772,178.441 344.772,179.774 346.5,181.5C 346.178,184.532 347.511,186.199 350.5,186.5C 353.684,184.743 357.018,183.243 360.5,182C 360.034,180.701 360.034,179.201 360.5,177.5C 364.455,177.726 367.455,177.059 369.5,175.5C 369.343,174.127 369.51,172.793 370,171.5C 370.333,171.833 370.667,172.167 371,172.5C 372.237,170.896 373.403,169.229 374.5,167.5C 375.086,167.709 375.586,168.043 376,168.5C 377.093,165.312 378.926,162.645 381.5,160.5C 382.509,156.463 383.509,152.463 384.5,148.5C 381.452,146.53 379.285,147.196 378,150.5C 377.075,149.953 376.242,149.287 375.5,148.5C 378.462,145.364 381.295,142.03 384,138.5C 385.117,139.949 385.784,141.616 386,143.5C 386.784,139.95 387.617,136.45 388.5,133C 387.584,132.626 386.75,132.126 386,131.5C 385.813,126.342 385.813,121.342 386,116.5C 388.609,118.108 389.942,120.441 390,123.5C 392.027,119.629 391.693,115.962 389,112.5C 387.989,111.663 386.822,111.33 385.5,111.5C 385.5,107.167 385.5,102.833 385.5,98.5C 384.088,96.0024 382.921,93.3358 382,90.5C 381.583,91.756 380.75,92.4226 379.5,92.5C 378.5,92.5 377.5,92.5 376.5,92.5C 377.826,89.999 378.326,87.3323 378,84.5C 376,83.1667 374,83.1667 372,84.5C 371.833,84 371.667,83.5 371.5,83C 373.351,80.5546 373.018,78.0546 370.5,75.5C 370.262,73.5956 369.262,72.2623 367.5,71.5 Z"/></g>
<g><path style="opacity:1" fill="#a434b5" d="M 385.5,98.5 C 385.5,102.833 385.5,107.167 385.5,111.5C 386.822,111.33 387.989,111.663 389,112.5C 391.693,115.962 392.027,119.629 390,123.5C 389.942,120.441 388.609,118.108 386,116.5C 385.813,121.342 385.813,126.342 386,131.5C 386.75,132.126 387.584,132.626 388.5,133C 387.617,136.45 386.784,139.95 386,143.5C 385.784,141.616 385.117,139.949 384,138.5C 381.295,142.03 378.462,145.364 375.5,148.5C 376.242,149.287 377.075,149.953 378,150.5C 379.285,147.196 381.452,146.53 384.5,148.5C 383.509,152.463 382.509,156.463 381.5,160.5C 378.926,162.645 377.093,165.312 376,168.5C 375.586,168.043 375.086,167.709 374.5,167.5C 373.403,169.229 372.237,170.896 371,172.5C 370.667,172.167 370.333,171.833 370,171.5C 369.51,172.793 369.343,174.127 369.5,175.5C 367.455,177.059 364.455,177.726 360.5,177.5C 360.034,179.201 360.034,180.701 360.5,182C 357.018,183.243 353.684,184.743 350.5,186.5C 347.511,186.199 346.178,184.532 346.5,181.5C 348.532,180.952 349.532,179.619 349.5,177.5C 347.169,177.502 345.169,176.669 343.5,175C 346.275,172.539 349.275,170.539 352.5,169C 352.167,168.667 351.833,168.333 351.5,168C 352.428,167.612 353.095,166.945 353.5,166C 354.436,162.086 355.603,158.253 357,154.5C 360.679,150.449 363.845,146.115 366.5,141.5C 368.56,136.38 370.893,131.38 373.5,126.5C 377.522,124.644 380.356,121.644 382,117.5C 382.084,113.698 381.251,110.032 379.5,106.5C 381.682,104.289 382.682,101.622 382.5,98.5C 383.5,98.5 384.5,98.5 385.5,98.5 Z"/></g>
<g><path style="opacity:0.998" fill="#5555a5" d="M 282.5,158.5 C 290.627,158.24 298.627,159.074 306.5,161C 307.056,161.383 307.389,161.883 307.5,162.5C 289.956,159.626 273.289,161.959 257.5,169.5C 258.234,168.292 258.567,166.959 258.5,165.5C 259.873,165.657 261.207,165.49 262.5,165C 263.916,162.735 265.916,161.569 268.5,161.5C 271.85,161.386 275.183,161.053 278.5,160.5C 280.333,160.415 281.666,159.748 282.5,158.5 Z"/></g>
<g><path style="opacity:1" fill="#2660a9" d="M 155.5,163.5 C 156.289,163.217 156.956,162.717 157.5,162C 169.446,160.153 181.446,159.487 193.5,160C 195.148,161.677 196.815,161.844 198.5,160.5C 199.097,159.861 199.93,159.528 201,159.5C 203.009,160.172 204.842,161.172 206.5,162.5C 205.494,163.396 205.494,164.062 206.5,164.5C 207.446,164.013 208.446,163.68 209.5,163.5C 211.528,165.641 214.028,166.974 217,167.5C 219.489,165.114 221.656,165.114 223.5,167.5C 222.5,167.5 221.5,167.5 220.5,167.5C 220.33,168.822 220.663,169.989 221.5,171C 220.833,171.333 220.167,171.667 219.5,172C 220.938,172.219 222.271,172.719 223.5,173.5C 223.877,175.824 224.877,176.491 226.5,175.5C 227.265,176.612 228.265,177.279 229.5,177.5C 229.508,180.545 229.841,183.545 230.5,186.5C 233.144,186.84 235.477,186.173 237.5,184.5C 238.107,184.624 238.44,184.957 238.5,185.5C 237.137,188.598 234.803,190.265 231.5,190.5C 223.319,173.898 209.986,164.398 191.5,162C 173.36,159.365 157.36,163.865 143.5,175.5C 142.805,171.287 142.139,167.121 141.5,163C 124.833,162.333 108.167,162.333 91.5,163C 92.4749,168.741 92.8082,174.575 92.5,180.5C 91.0214,174.997 89.6881,169.331 88.5,163.5C 88.7093,162.914 89.0426,162.414 89.5,162C 101.758,160.561 114.091,160.061 126.5,160.5C 130.5,160.5 134.5,160.5 138.5,160.5C 140.856,159.425 143.189,159.425 145.5,160.5C 144.626,162.747 144.292,165.08 144.5,167.5C 146.5,167.833 148.5,168.167 150.5,168.5C 150.5,165.167 152.167,163.5 155.5,163.5 Z"/></g>
<g><path style="opacity:0.169" fill="#2f4584" d="M 312.5,173.5 C 301.207,171.12 289.874,170.954 278.5,173C 275.257,173.625 272.257,174.791 269.5,176.5C 268.274,176.48 267.274,176.147 266.5,175.5C 281.713,169.687 297.046,169.02 312.5,173.5 Z"/></g>
<g><path style="opacity:1" fill="#1d46a6" d="M 312.5,173.5 C 326.839,178.005 337.339,187.005 344,200.5C 345.124,203.442 345.458,206.442 345,209.5C 336.263,209.472 327.43,209.638 318.5,210C 317.584,209.626 316.75,209.126 316,208.5C 310.095,195.072 299.929,190.239 285.5,194C 275.184,198.42 269.017,206.253 267,217.5C 264.553,231.338 265.22,245.005 269,258.5C 274.443,271.642 284.276,277.142 298.5,275C 305.923,273.632 311.589,269.799 315.5,263.5C 316.627,262.878 317.627,262.045 318.5,261C 327.16,260.5 335.827,260.334 344.5,260.5C 345.177,267.219 343.177,268.552 338.5,264.5C 337.614,265.325 337.281,266.325 337.5,267.5C 338.5,267.5 339.5,267.5 340.5,267.5C 340.5,268.833 340.5,270.167 340.5,271.5C 338.5,271.5 336.5,271.5 334.5,271.5C 334.421,272.93 334.754,274.264 335.5,275.5C 335.167,275.833 334.833,276.167 334.5,276.5C 333.614,275.675 333.281,274.675 333.5,273.5C 331.833,273.5 330.167,273.5 328.5,273.5C 328.762,274.978 328.429,276.311 327.5,277.5C 324.585,276.296 322.419,274.296 321,271.5C 319.442,273.768 317.276,274.934 314.5,275C 312.343,276.085 312.176,277.251 314,278.5C 316.343,277.873 318.51,276.873 320.5,275.5C 320.833,276.167 321.167,276.833 321.5,277.5C 320.453,279.056 319.786,280.723 319.5,282.5C 316.72,282.193 314.22,281.193 312,279.5C 310.941,279.63 310.108,280.13 309.5,281C 311.742,282.762 314.076,284.262 316.5,285.5C 318.044,285.21 319.377,284.544 320.5,283.5C 321.5,284.5 322.5,285.5 323.5,286.5C 320.284,289.276 316.617,291.276 312.5,292.5C 305.925,292.903 299.425,292.236 293,290.5C 292,291.167 291,291.833 290,292.5C 287.619,291.565 285.119,291.232 282.5,291.5C 282.5,292.5 282.5,293.5 282.5,294.5C 278.651,294.981 276.651,293.314 276.5,289.5C 274.179,289.229 272.179,289.896 270.5,291.5C 267.865,291.106 267.199,289.939 268.5,288C 268.387,286.72 267.72,285.887 266.5,285.5C 264.827,287.086 262.827,287.753 260.5,287.5C 252.046,282.645 245.879,275.645 242,266.5C 232.699,242.385 233.699,218.719 245,195.5C 250.428,186.904 257.594,180.237 266.5,175.5C 267.274,176.147 268.274,176.48 269.5,176.5C 272.257,174.791 275.257,173.625 278.5,173C 289.874,170.954 301.207,171.12 312.5,173.5 Z"/></g>
<g><path style="opacity:1" fill="#1d45a5" d="M 225.5,188.5 C 227.661,194.274 228.995,200.274 229.5,206.5C 221.5,206.5 213.5,206.5 205.5,206.5C 205.453,201.827 203.453,198.494 199.5,196.5C 191.502,191.796 183.169,191.296 174.5,195C 169.279,199.71 168.279,205.21 171.5,211.5C 174.796,214.296 178.463,216.463 182.5,218C 191.906,220.802 201.239,223.802 210.5,227C 215.279,229.303 219.613,232.136 223.5,235.5C 222.448,235.351 221.448,235.517 220.5,236C 221.306,239.397 222.64,242.563 224.5,245.5C 224,245.833 223.5,246.167 223,246.5C 219.975,243.834 216.808,242.168 213.5,241.5C 215.571,240.024 216.571,238.024 216.5,235.5C 212.904,235.847 209.571,235.18 206.5,233.5C 205,233.453 204,234.119 203.5,235.5C 204.32,237.111 205.654,237.778 207.5,237.5C 207.5,238.833 207.5,240.167 207.5,241.5C 202.231,240.932 198.565,243.098 196.5,248C 200.674,248.239 204.174,246.739 207,243.5C 207.494,245.134 207.66,246.801 207.5,248.5C 206.178,248.67 205.011,248.337 204,247.5C 202.086,248.676 202.252,249.676 204.5,250.5C 203.975,251.192 203.308,251.692 202.5,252C 205.361,252.085 208.028,251.251 210.5,249.5C 213.059,251.457 212.726,253.123 209.5,254.5C 208.833,254.167 208.167,253.833 207.5,253.5C 206.823,260.259 205.823,266.926 204.5,273.5C 203.167,273.5 201.833,273.5 200.5,273.5C 208.407,263.342 206.741,255.175 195.5,249C 185.094,245.865 174.761,242.531 164.5,239C 144.674,230.848 137.508,216.348 143,195.5C 149.182,181.336 160.015,173.169 175.5,171C 191.72,168.057 206.387,171.391 219.5,181C 222.118,183.106 224.118,185.606 225.5,188.5 Z"/></g>
<g><path style="opacity:0.824" fill="#264289" d="M 225.5,188.5 C 229.652,194.426 231.652,201.093 231.5,208.5C 222.5,208.5 213.5,208.5 204.5,208.5C 203.923,204.017 202.256,200.017 199.5,196.5C 203.453,198.494 205.453,201.827 205.5,206.5C 213.5,206.5 221.5,206.5 229.5,206.5C 228.995,200.274 227.661,194.274 225.5,188.5 Z"/></g>
<g><path style="opacity:1" fill="#1e45a4" d="M 471.5,226.5 C 472.574,229.068 474.574,230.735 477.5,231.5C 479.292,237.05 479.792,242.717 479,248.5C 476.649,249.714 474.149,250.548 471.5,251C 471.833,251.333 472.167,251.667 472.5,252C 469.568,252.953 466.568,253.453 463.5,253.5C 463.528,251.418 462.861,249.584 461.5,248C 463.784,246.637 463.951,245.137 462,243.5C 459.894,247.252 457.728,247.252 455.5,243.5C 456.689,242.571 458.022,242.238 459.5,242.5C 459.579,241.07 459.246,239.736 458.5,238.5C 459.325,237.614 460.325,237.281 461.5,237.5C 461.804,234.767 460.637,233.101 458,232.5C 456.013,234.628 453.513,235.628 450.5,235.5C 438.061,229.112 425.728,222.446 413.5,215.5C 412.535,208.224 412.201,200.891 412.5,193.5C 432.581,203.708 452.248,214.708 471.5,226.5 Z"/></g>
<g><path style="opacity:1" fill="#1d45a6" d="M 223.5,235.5 C 228.713,239.916 231.879,245.583 233,252.5C 235.325,275.166 225.491,289.333 203.5,295C 186.445,298.548 170.111,296.548 154.5,289C 143.314,281.46 137.814,270.96 138,257.5C 146.755,256.35 155.588,256.184 164.5,257C 167.246,271.895 176.246,278.228 191.5,276C 194.546,275.261 197.546,274.428 200.5,273.5C 201.833,273.5 203.167,273.5 204.5,273.5C 205.823,266.926 206.823,260.259 207.5,253.5C 208.167,253.833 208.833,254.167 209.5,254.5C 212.726,253.123 213.059,251.457 210.5,249.5C 208.028,251.251 205.361,252.085 202.5,252C 203.308,251.692 203.975,251.192 204.5,250.5C 202.252,249.676 202.086,248.676 204,247.5C 205.011,248.337 206.178,248.67 207.5,248.5C 207.66,246.801 207.494,245.134 207,243.5C 204.174,246.739 200.674,248.239 196.5,248C 198.565,243.098 202.231,240.932 207.5,241.5C 207.5,240.167 207.5,238.833 207.5,237.5C 205.654,237.778 204.32,237.111 203.5,235.5C 204,234.119 205,233.453 206.5,233.5C 209.571,235.18 212.904,235.847 216.5,235.5C 216.571,238.024 215.571,240.024 213.5,241.5C 216.808,242.168 219.975,243.834 223,246.5C 223.5,246.167 224,245.833 224.5,245.5C 222.64,242.563 221.306,239.397 220.5,236C 221.448,235.517 222.448,235.351 223.5,235.5 Z"/></g>
<g><path style="opacity:0.208" fill="#294484" d="M 105.5,171.5 C 104.878,172.627 104.045,173.627 103,174.5C 102.5,214.165 102.333,253.832 102.5,293.5C 111.126,294.411 119.792,294.745 128.5,294.5C 128.667,254.165 128.5,213.832 128,173.5C 125.723,172.883 123.556,172.216 121.5,171.5C 124.119,171.232 126.619,171.565 129,172.5C 129.5,213.499 129.667,254.499 129.5,295.5C 120.249,295.818 111.083,295.485 102,294.5C 101.333,253.833 101.333,213.167 102,172.5C 103.011,171.663 104.178,171.33 105.5,171.5 Z"/></g>
<g><path style="opacity:1" fill="#1d47a8" d="M 105.5,171.5 C 110.833,171.5 116.167,171.5 121.5,171.5C 123.556,172.216 125.723,172.883 128,173.5C 128.5,213.832 128.667,254.165 128.5,294.5C 119.792,294.745 111.126,294.411 102.5,293.5C 102.333,253.832 102.5,214.165 103,174.5C 104.045,173.627 104.878,172.627 105.5,171.5 Z"/></g>
<g><path style="opacity:1" fill="#1e45a3" d="M 70.5,194.5 C 71.5,194.5 72.5,194.5 73.5,194.5C 73.6664,202.174 73.4997,209.841 73,217.5C 58.4529,224.857 43.9529,232.357 29.5,240C 44.0394,248.103 58.7061,255.936 73.5,263.5C 74.8333,270.833 74.8333,278.167 73.5,285.5C 50.2713,273.098 26.938,260.931 3.5,249C 2.87289,247.262 2.53956,245.429 2.5,243.5C 3.08673,240.566 3.08673,237.733 2.5,235C 2.75908,233.739 3.42575,232.739 4.5,232C 26.725,219.726 48.725,207.226 70.5,194.5 Z"/></g>
<g><path style="opacity:1" fill="#254498" d="M 471.5,226.5 C 474.223,228.281 477.057,229.948 480,231.5C 480.667,237.5 480.667,243.5 480,249.5C 461.351,259.907 442.517,269.907 423.5,279.5C 424.398,277.373 426.064,276.206 428.5,276C 428.167,275.667 427.833,275.333 427.5,275C 428.5,274.667 429.5,274.333 430.5,274C 429.289,273.107 429.289,272.274 430.5,271.5C 432.71,272.982 434.376,272.482 435.5,270C 440.143,268.068 444.81,266.234 449.5,264.5C 450.457,262.082 451.791,259.916 453.5,258C 451.667,258.167 449.833,258.333 448,258.5C 445.074,256.44 445.574,254.774 449.5,253.5C 452.696,256.618 456.363,257.618 460.5,256.5C 458.488,254.545 456.154,253.045 453.5,252C 457.392,249.176 456.892,247.009 452,245.5C 450.56,246.148 449.06,246.481 447.5,246.5C 447.48,248.143 448.147,249.476 449.5,250.5C 449.167,250.833 448.833,251.167 448.5,251.5C 447.131,249.876 445.464,249.376 443.5,250C 441.403,251.61 439.07,252.777 436.5,253.5C 434.902,255.881 432.568,257.048 429.5,257C 429.833,257.333 430.167,257.667 430.5,258C 425.526,259.935 420.526,261.769 415.5,263.5C 414.646,269.121 414.313,274.788 414.5,280.5C 416.833,280.5 419.167,280.5 421.5,280.5C 418.918,282.742 415.918,284.076 412.5,284.5C 412.17,277.468 412.503,270.468 413.5,263.5C 428.325,255.921 442.992,248.088 457.5,240C 454.761,238.974 452.428,237.474 450.5,235.5C 453.513,235.628 456.013,234.628 458,232.5C 460.637,233.101 461.804,234.767 461.5,237.5C 460.325,237.281 459.325,237.614 458.5,238.5C 459.246,239.736 459.579,241.07 459.5,242.5C 458.022,242.238 456.689,242.571 455.5,243.5C 457.728,247.252 459.894,247.252 462,243.5C 463.951,245.137 463.784,246.637 461.5,248C 462.861,249.584 463.528,251.418 463.5,253.5C 466.568,253.453 469.568,252.953 472.5,252C 472.167,251.667 471.833,251.333 471.5,251C 474.149,250.548 476.649,249.714 479,248.5C 479.792,242.717 479.292,237.05 477.5,231.5C 474.574,230.735 472.574,229.068 471.5,226.5 Z"/></g>
<g><path style="opacity:0.004" fill="#000000" d="M 166.5,258.5 C 167.573,259.251 167.74,260.251 167,261.5C 166.517,260.552 166.351,259.552 166.5,258.5 Z"/></g>
<g><path style="opacity:1" fill="#1c45a9" d="M 423.5,279.5 C 423.158,280.338 422.492,280.672 421.5,280.5C 419.167,280.5 416.833,280.5 414.5,280.5C 414.313,274.788 414.646,269.121 415.5,263.5C 420.526,261.769 425.526,259.935 430.5,258C 430.167,257.667 429.833,257.333 429.5,257C 432.568,257.048 434.902,255.881 436.5,253.5C 439.07,252.777 441.403,251.61 443.5,250C 445.464,249.376 447.131,249.876 448.5,251.5C 448.833,251.167 449.167,250.833 449.5,250.5C 448.147,249.476 447.48,248.143 447.5,246.5C 449.06,246.481 450.56,246.148 452,245.5C 456.892,247.009 457.392,249.176 453.5,252C 456.154,253.045 458.488,254.545 460.5,256.5C 456.363,257.618 452.696,256.618 449.5,253.5C 445.574,254.774 445.074,256.44 448,258.5C 449.833,258.333 451.667,258.167 453.5,258C 451.791,259.916 450.457,262.082 449.5,264.5C 444.81,266.234 440.143,268.068 435.5,270C 434.376,272.482 432.71,272.982 430.5,271.5C 429.289,272.274 429.289,273.107 430.5,274C 429.5,274.333 428.5,274.667 427.5,275C 427.833,275.333 428.167,275.667 428.5,276C 426.064,276.206 424.398,277.373 423.5,279.5 Z"/></g>
<g><path style="opacity:0.999" fill="#1f45a1" d="M 381.5,172.5 C 387.5,172.5 393.5,172.5 399.5,172.5C 388.185,212.948 376.352,253.282 364,293.5C 357.789,295.434 351.289,296.101 344.5,295.5C 356.226,254.322 368.559,213.322 381.5,172.5 Z"/></g>
<g><path style="opacity:0.004" fill="#000000" d="M 347.5,277.5 C 348.833,278.167 348.833,278.167 347.5,277.5 Z"/></g>
<g><path style="opacity:1" fill="#1f459e" d="M 260.5,287.5 C 262.827,287.753 264.827,287.086 266.5,285.5C 267.72,285.887 268.387,286.72 268.5,288C 267.199,289.939 267.865,291.106 270.5,291.5C 272.179,289.896 274.179,289.229 276.5,289.5C 276.651,293.314 278.651,294.981 282.5,294.5C 282.5,293.5 282.5,292.5 282.5,291.5C 285.119,291.232 287.619,291.565 290,292.5C 291,291.833 292,291.167 293,290.5C 299.425,292.236 305.925,292.903 312.5,292.5C 316.617,291.276 320.284,289.276 323.5,286.5C 322.5,285.5 321.5,284.5 320.5,283.5C 319.377,284.544 318.044,285.21 316.5,285.5C 314.076,284.262 311.742,282.762 309.5,281C 310.108,280.13 310.941,279.63 312,279.5C 314.22,281.193 316.72,282.193 319.5,282.5C 319.786,280.723 320.453,279.056 321.5,277.5C 321.167,276.833 320.833,276.167 320.5,275.5C 318.51,276.873 316.343,277.873 314,278.5C 312.176,277.251 312.343,276.085 314.5,275C 317.276,274.934 319.442,273.768 321,271.5C 322.419,274.296 324.585,276.296 327.5,277.5C 328.429,276.311 328.762,274.978 328.5,273.5C 330.167,273.5 331.833,273.5 333.5,273.5C 333.281,274.675 333.614,275.675 334.5,276.5C 334.833,276.167 335.167,275.833 335.5,275.5C 334.754,274.264 334.421,272.93 334.5,271.5C 336.5,271.5 338.5,271.5 340.5,271.5C 340.5,270.167 340.5,268.833 340.5,267.5C 339.5,267.5 338.5,267.5 337.5,267.5C 337.281,266.325 337.614,265.325 338.5,264.5C 343.177,268.552 345.177,267.219 344.5,260.5C 335.827,260.334 327.16,260.5 318.5,261C 317.627,262.045 316.627,262.878 315.5,263.5C 316.038,261.883 316.371,260.216 316.5,258.5C 326.5,258.5 336.5,258.5 346.5,258.5C 341.395,280.096 327.728,292.596 305.5,296C 292.492,297.599 279.826,296.266 267.5,292C 264.761,290.974 262.428,289.474 260.5,287.5 Z"/></g>
<g><path style="opacity:0.004" fill="#000000" d="M 344.5,287.5 C 345.833,288.167 345.833,288.167 344.5,287.5 Z"/></g>
</svg>
